# xmcd CD database file
#
# Track frame offsets:
#	150
#	13990
#	28268
#	41039
#	54022
#	66989
#	81326
#	95928
#	108331
#	123687
#	137000
#	150904
#	165216
#	177413
#	189440
#	202344
#	217861
#	232434
#	249286
#	263503
#	274861
#	288400
#	302815
#	317460
#	333506
#
# Disc length: 4630 seconds
#
# Revision: 0
# Processed by: cddbd v1.5.2PL0 Copyright (c) Steve Scherf et al.
# Submitted via: CDex 1.70beta2
#
DISCID=6f121419
DTITLE=Oscar Peterson - Piano Power - CD 1 - Debut
DYEAR=2005
DGENRE=Jazz
TTITLE0=I Got Rhythm
TTITLE1=If I Could Be With You One Hour Tonight
TTITLE2=Humoresque
TTITLE3=Blue Moon
TTITLE4=China Boy
TTITLE5=Sweet Lorraine
TTITLE6=Indiana
TTITLE7=Margie
TTITLE8=I Surrender Dear
TTITLE9=Oo-Bop-Sh'bam
TTITLE10=Sweet Georgia Brown
TTITLE11=Rockin' In Rhythm
TTITLE12=Fine And Dandy
TTITLE13=Somebody Loves Me
TTITLE14=Debut
TTITLE15=Where Or When
TTITLE16=Oscar's Blues
TTITLE17=Tenderly
TTITLE18=Little White Lies
TTITLE19=Get Happy
TTITLE20=Jumpin' With Symphony Sid
TTITLE21=Deep Purple
TTITLE22=Robbins' Nest
TTITLE23=I'll Remember April
TTITLE24=Lover
EXTD=YEAR: 2005
EXTT0=
EXTT1=
EXTT2=
EXTT3=
EXTT4=
EXTT5=
EXTT6=
EXTT7=
EXTT8=
EXTT9=
EXTT10=
EXTT11=
EXTT12=
EXTT13=
EXTT14=
EXTT15=
EXTT16=
EXTT17=
EXTT18=
EXTT19=
EXTT20=
EXTT21=
EXTT22=
EXTT23=
EXTT24=
PLAYORDER=
